{"title":"Spin.2007.STV.DVDRiP.XviD-iNTiMiD","uid":5991109,"size":1466954476,"categoryP":"video","categoryS":"movies","magnet":"?xt=urn:btih:5dcbe59429451abd82808cd9fb8f1e3fda7bd31f&amp;dn=Spin.2007.STV.DVDRiP.XviD-iNTiMiD&amp;tr=udp%3A%2F%2Ftracker.openbittorrent.com%3A80&amp;tr=udp%3A%2F%2Fopen.demonii.com%3A1337&amp;tr=udp%3A%2F%2Ftracker.coppersurfer.tk%3A6969&amp;tr=udp%3A%2F%2Fexodus.desync.com%3A6969","seeders":0,"leechers":1,"uploader":"HolyRoses","files":-1,"time":1290892915,"description":"IMDb:                               &lt;a href=&quot;\nhttp://www.imdb.com/title/tt0491161/&quot; rel=&quot;nofollow&quot; target=&quot;_NEW&quot;&gt;\nhttp://www.imdb.com/title/tt0491161/&lt;/a&gt;\n\nPoster:                                                 &lt;a href=&quot;\nhttp://img713.imageshack.us/img713/7492/spinposter.jpg&quot; rel=&quot;nofollow&quot; target=&quot;_NEW&quot;&gt;\nhttp://img713.imageshack.us/img713/7492/spinposter.jpg&lt;/a&gt;\n\nSnaps:                  &lt;a href=&quot;\nhttp://img138.imageshack.us/img138/8154/vlcsnap2010112713h53m54.png&quot; rel=&quot;nofollow&quot; target=&quot;_NEW&quot;&gt;\nhttp://img138.imageshack.us/img138/8154/vlcsnap2010112713h53m54.png&lt;/a&gt;\n  &lt;a href=&quot;\nhttp://img5.imageshack.us/img5/5470/vlcsnap2010112713h53m50.png&quot; rel=&quot;nofollow&quot; target=&quot;_NEW&quot;&gt;\nhttp://img5.imageshack.us/img5/5470/vlcsnap2010112713h53m50.png&lt;/a&gt;\n  &lt;a href=&quot;\nhttp://img259.imageshack.us/img259/6155/vlcsnap2010112713h53m46.png&quot; rel=&quot;nofollow&quot; target=&quot;_NEW&quot;&gt;\nhttp://img259.imageshack.us/img259/6155/vlcsnap2010112713h53m46.png&lt;/a&gt;\n  &lt;a href=&quot;\nhttp://img46.imageshack.us/img46/6203/vlcsnap2010112713h53m42.png&quot; rel=&quot;nofollow&quot; target=&quot;_NEW&quot;&gt;\nhttp://img46.imageshack.us/img46/6203/vlcsnap2010112713h53m42.png&lt;/a&gt;\n  &lt;a href=&quot;\nhttp://img84.imageshack.us/img84/9962/vlcsnap2010112713h54m14.png&quot; rel=&quot;nofollow&quot; target=&quot;_NEW&quot;&gt;\nhttp://img84.imageshack.us/img84/9962/vlcsnap2010112713h54m14.png&lt;/a&gt;\n  &lt;a href=&quot;\nhttp://img35.imageshack.us/img35/9544/vlcsnap2010112713h54m12.png&quot; rel=&quot;nofollow&quot; target=&quot;_NEW&quot;&gt;\nhttp://img35.imageshack.us/img35/9544/vlcsnap2010112713h54m12.png&lt;/a&gt;\n  &lt;a href=&quot;\nhttp://img522.imageshack.us/img522/7375/vlcsnap2010112713h54m07.png&quot; rel=&quot;nofollow&quot; target=&quot;_NEW&quot;&gt;\nhttp://img522.imageshack.us/img522/7375/vlcsnap2010112713h54m07.png&lt;/a&gt;\n  &lt;a href=&quot;\nhttp://img94.imageshack.us/img94/6524/vlcsnap2010112713h54m04.png&quot; rel=&quot;nofollow&quot; target=&quot;_NEW&quot;&gt;\nhttp://img94.imageshack.us/img94/6524/vlcsnap2010112713h54m04.png&lt;/a&gt;\n  &lt;a href=&quot;\nhttp://img440.imageshack.us/img440/6458/vlcsnap2010112713h53m57.png&quot; rel=&quot;nofollow&quot; target=&quot;_NEW&quot;&gt;\nhttp://img440.imageshack.us/img440/6458/vlcsnap2010112713h53m57.png&lt;/a&gt;\n\n\nSpecs:\nGeneral\nComplete name                    : Blnsr.spn.1.avi\nFormat                           : AVI\nFormat/Info                      : Audio Video Interleave\nFile size                        : 700 MiB\nDuration                         : 55mn 27s\nOverall bit rate                 : 1 765 Kbps\nWriting application              : Nandub v1.0rc2\nWriting library                  : Nandub build 1853/release\n\nVideo\nID                               : 0\nFormat                           : MPEG-4 Visual\nFormat profile                   : Advanced Simple@L5\nFormat settings, BVOP            : Yes\nFormat settings, QPel            : No\nFormat settings, GMC             : No warppoints\nFormat settings, Matrix          : Default (H.263)\nMuxing mode                      : Packed bitstream\nCodec ID                         : XVID\nCodec ID/Hint                    : XviD\nDuration                         : 55mn 27s\nBit rate                         : 1 307 Kbps\nWidth                            : 656 pixels\nHeight                           : 368 pixels\nDisplay aspect ratio             : 16:9\nFrame rate                       : 23.976 fps\nColor space                      : YUV\nChroma subsampling               : 4:2:0\nBit depth                        : 8 bits\nScan type                        : Progressive\nBits/(Pixel*Frame)               : 0.226\nStream size                      : 519 MiB (74%)\nWriting library                  : XviD 1.1.0 (UTC 2005-11-22)\n\nAudio\nID                               : 1\nFormat                           : AC-3\nFormat/Info                      : Audio Coding 3\nMode extension                   : CM (complete main)\nCodec ID                         : 2000\nDuration                         : 55mn 27s\nBit rate mode                    : Constant\nBit rate                         : 448 Kbps\nChannel(s)                       : 2 channels\nChannel positions                : Front: L R\nSampling rate                    : 48.0 KHz\nBit depth                        : 16 bits\nStream size                      : 178 MiB (25%)\nAlignment                        : Split accross interleaves\nInterleave, duration             : 42 ms (1.00 video frame)\nInterleave, preload duration     : 500 ms\n\n\n-HR","torrent":{"xt":"urn:btih:5dcbe59429451abd82808cd9fb8f1e3fda7bd31f","amp;dn":"Spin.2007.STV.DVDRiP.XviD-iNTiMiD","amp;tr":["udp%3A%2F%2Ftracker.openbittorrent.com%3A80","udp%3A%2F%2Fopen.demonii.com%3A1337","udp%3A%2F%2Ftracker.coppersurfer.tk%3A6969","udp%3A%2F%2Fexodus.desync.com%3A6969"],"infoHash":"5dcbe59429451abd82808cd9fb8f1e3fda7bd31f","infoHashBuffer":{"type":"Buffer","data":[93,203,229,148,41,69,26,189,130,128,140,217,251,143,30,63,218,123,211,31]},"announce":[],"urlList":[]}}